<svg xmlns="http://www.w3.org/2000/svg" width="512" height="512" viewBox="156 179 647 647">
<g transform="translate(0,960) scale(0.1,-0.1)" fill="#0c2233" stroke="none">
<path d="M2326 7248 c-8 -38 -25 -241 -37 -452 -15 -262 -7 -875 15 -1096 76
-757 268 -1421 551 -1905 72 -123 277 -437 370 -565 445 -618 976 -1086 1489
-1315 l85 -38 143 71 c652 320 1247 929 1775 1817 324 544 528 1286 583 2120
21 320 10 895 -23 1255 l-12 125 -2467 3 -2468 2 -4 -22z m2573 -968 c394 -35
743 -251 942 -582 27 -45 49 -73 49 -64 0 60 44 375 56 398 52 101 216 93 258
-13 16 -39 14 -59 -39 -521 -31 -265 -60 -488 -65 -497 -36 -67 -122 -97 -190
-69 -45 19 -708 647 -734 694 -40 75 13 182 98 198 68 13 103 -6 231 -126 104
-99 115 -107 85 -63 -180 265 -525 432 -845 410 -187 -13 -191 -13 -224 20
-40 38 -49 83 -25 132 27 54 64 71 180 82 54 4 101 9 104 10 3 0 56 -4 119 -9z
m-607 -76 c34 -18 55 -48 63 -94 8 -45 -206 -952 -233 -990 -57 -79 -193 -78
-242 2 -27 45 -25 77 15 246 19 80 33 147 31 149 -6 6 -61 -139 -82 -217 -14
-51 -18 -102 -19 -230 0 -144 3 -176 24 -250 33 -118 87 -230 159 -330 51 -70
62 -92 62 -125 0 -86 -70 -140 -151 -116 -47 14 -112 89 -181 206 -161 275
-205 608 -123 930 24 94 94 257 136 316 11 16 20 32 18 33 -2 2 -79 -29 -171
-69 -92 -40 -180 -76 -197 -80 -39 -8 -98 8 -128 36 -52 50 -50 150 4 201 23
21 726 335 883 395 38 14 89 9 132 -13z m1625 -1438 c41 -44 42 -79 7 -165
-119 -294 -363 -537 -664 -661 -131 -54 -251 -80 -402 -87 l-136 -6 158 -118
c87 -65 166 -129 175 -143 22 -33 30 -98 16 -125 -11 -20 -19 -21 -145 -21
-124 0 -136 2 -168 24 -121 81 -651 482 -672 507 -44 52 -28 157 29 195 42 28
913 284 965 284 81 0 140 -60 140 -142 0 -39 -30 -92 -62 -109 -13 -7 -99 -37
-193 -66 -93 -28 -165 -52 -160 -52 6 -1 49 4 97 9 167 19 337 89 483 197 139
104 221 208 306 390 41 87 54 106 82 119 51 23 106 12 144 -30z M7471 6344 c0 -11 3 -14 6 -6 3 7 2 16 -1 19 -3 4 -6 -2 -5 -13z M2121 5994 c0 -11 3 -14 6 -6 3 7 2 16 -1 19 -3 4 -6 -2 -5 -13z"/>
</g>
<g transform="translate(0,960) scale(0.1,-0.1)" fill="#38bdf8" stroke="none">
<path d="M2196 7378 c-10 -57 -35 -347 -47 -523 -17 -250 -14 -811 5 -1051 51
-651 182 -1219 401 -1728 88 -207 184 -378 370 -661 524 -802 1135 -1372 1756
-1640 131 -57 107 -61 334 51 660 324 1278 954 1818 1854 337 563 543 1299
608 2175 15 203 15 789 0 1005 -14 202 -40 497 -47 528 l-4 22 -2595 0 -2594
0 -5 -32z m5088 -135 c36 -224 57 -973 37 -1308 -52 -870 -258 -1628 -595
-2190 -273 -454 -558 -828 -871 -1141 -245 -245 -440 -401 -695 -554 -107 -65
-340 -180 -362 -180 -22 0 -207 87 -303 142 -570 327 -1078 851 -1546 1598
-188 300 -262 447 -365 730 -163 443 -252 865 -306 1445 -20 215 -17 965 5
1225 10 113 20 220 23 238 l6 32 2483 0 2483 0 6 -37z"/>
</g>
<g transform="translate(0,960) scale(0.1,-0.1)" fill="#34d399" stroke="none">
<path d="M3755 6030 c-326 -141 -447 -198 -467 -220 -38 -41 -46 -94 -22 -139
21 -40 76 -81 107 -81 12 0 110 38 218 85 109 47 203 85 209 85 6 0 -2 -19
-18 -42 -73 -107 -140 -272 -168 -415 -22 -108 -24 -337 -5 -443 29 -162 93
-319 188 -463 85 -129 132 -162 193 -137 38 16 62 54 64 99 0 29 -11 53 -61
121 -33 47 -73 110 -88 140 -138 275 -139 616 -4 883 65 130 70 105 20 -102
-51 -213 -52 -240 -8 -287 61 -67 166 -52 202 28 18 41 225 910 225 946 0 33
-31 86 -63 106 -56 37 -60 36 -522 -164z"/>
</g>
<g transform="translate(0,960) scale(0.1,-0.1)" fill="#fbbf24" stroke="none">
<path d="M4673 6269 c-104 -11 -128 -21 -153 -61 -24 -39 -25 -69 -5 -108 27
-52 63 -63 157 -49 353 52 746 -126 948 -429 49 -72 60 -97 40 -90 -5 2 -69
60 -142 129 -173 164 -199 177 -267 141 -62 -33 -87 -111 -56 -171 17 -35 673
-658 718 -684 57 -33 135 -7 169 56 14 27 120 946 113 984 -8 46 -50 91 -96
103 -33 9 -46 8 -77 -7 -60 -29 -69 -58 -96 -287 -14 -115 -27 -211 -30 -214
-8 -7 -7 -8 -51 72 -139 251 -369 446 -655 553 -143 54 -358 80 -517 62z"/>
</g>
<g transform="translate(0,960) scale(0.1,-0.1)" fill="#f87171" stroke="none">
<path d="M5780 4785 c-28 -14 -30 -19 -84 -137 -115 -256 -356 -460 -635 -537
-83 -23 -275 -46 -293 -35 -6 4 69 31 168 60 98 30 190 59 203 66 42 22 63 67
58 122 -4 42 -10 55 -41 83 -28 26 -44 33 -75 33 -40 0 -890 -248 -942 -275
-54 -29 -76 -113 -44 -174 9 -18 145 -126 360 -285 l346 -256 123 0 c135 0
136 0 136 61 0 56 -28 86 -202 215 l-173 129 150 7 c83 3 179 13 215 22 366
88 667 326 827 654 69 141 69 201 0 242 -37 23 -62 24 -97 5z"/>
</g>
</svg>
