<svg version="1.1" id="Layer_1" xmlns="http://www.w3.org/2000/svg" xmlns:xlink="http://www.w3.org/1999/xlink" x="0px" y="0px"
	 width="100%" viewBox="0 0 960 960" enable-background="new 0 0 960 960" xml:space="preserve">
<path fill="#101720" opacity="1.000000" stroke="none" 
	d="
M1.000002,777.000000 
	C1.000000,579.974182 1.000000,382.948334 1.330394,185.302673 
	C2.575630,180.871628 3.591524,177.081436 4.389980,173.245987 
	C14.501040,124.676697 37.946392,83.945831 75.756416,51.632507 
	C105.287758,26.394333 139.203232,10.516080 177.448303,3.766794 
	C180.047348,3.308130 182.486496,1.943361 185.000000,1.000000 
	C382.025848,1.000000 579.051697,1.000000 776.687195,1.337827 
	C781.100342,2.601807 784.880493,3.640489 788.710876,4.437044 
	C837.283386,14.537942 878.000549,37.999626 910.313049,75.802582 
	C935.667786,105.465706 951.580444,139.541275 958.283081,177.973267 
	C958.706238,180.399673 960.072449,182.661591 961.000000,185.000000 
	C961.000000,382.025848 961.000000,579.051697 960.660645,776.686584 
	C959.821777,778.640076 959.083130,779.945801 958.858582,781.334595 
	C955.677673,801.007751 949.889404,819.893372 941.458191,837.925354 
	C927.124756,868.580505 906.674866,894.445679 880.077881,915.416626 
	C851.957886,937.588318 820.299377,951.852661 785.030457,958.154541 
	C782.272217,958.647339 779.673096,960.030579 777.000000,961.000000 
	C579.974182,961.000000 382.948334,961.000000 185.307434,960.665283 
	C180.724747,959.372437 176.779495,958.307495 172.786163,957.472473 
	C124.211761,947.315979 83.552162,923.739441 51.311199,885.884583 
	C26.356102,856.584351 10.633821,822.938660 3.810695,785.075867 
	C3.311380,782.305054 1.956898,779.688354 1.000002,777.000000 
M216.457748,257.474457 
	C215.743820,269.281982 214.834274,281.081451 214.349762,292.898376 
	C212.240768,344.335052 214.447495,395.535126 223.899338,446.236206 
	C234.424316,502.693665 252.053497,556.457153 283.331177,605.290955 
	C312.305603,650.528625 344.293365,693.153442 384.666260,728.979675 
	C411.650360,752.924927 441.273712,772.792236 474.760986,786.508484 
	C477.828217,787.764832 482.179077,788.200134 485.146301,787.026123 
	C511.812714,776.475464 536.046997,761.645081 558.611816,744.021790 
	C590.885071,718.816284 618.319275,688.946594 642.909546,656.361755 
	C662.506714,630.393250 680.997925,603.574463 695.769165,574.610840 
	C720.849731,525.432678 734.699524,472.684845 741.956482,418.131073 
	C748.662659,367.716919 749.232910,317.132050 745.599426,266.468842 
	C744.493530,251.048950 742.925842,235.662186 741.550903,220.048187 
	C567.494507,220.048187 393.949524,220.048187 219.916550,220.048187 
	C218.776321,232.388565 217.660278,244.467194 216.457748,257.474457 
z"/>
<path fill="#000000" opacity="1.000000" stroke="none" 
	d="
M184.531342,1.000000 
	C182.486496,1.943361 180.047348,3.308130 177.448303,3.766794 
	C139.203232,10.516080 105.287758,26.394333 75.756416,51.632507 
	C37.946392,83.945831 14.501040,124.676697 4.389980,173.245987 
	C3.591524,177.081436 2.575630,180.871628 1.330394,184.841431 
	C1.000000,123.739639 1.000000,62.479286 1.000000,1.000000 
	C62.020721,1.000000 123.041702,1.000000 184.531342,1.000000 
z"/>
<path fill="#000000" opacity="1.000000" stroke="none" 
	d="
M961.000000,184.531342 
	C960.072449,182.661591 958.706238,180.399673 958.283081,177.973267 
	C951.580444,139.541275 935.667786,105.465706 910.313049,75.802582 
	C878.000549,37.999626 837.283386,14.537942 788.710876,4.437044 
	C784.880493,3.640489 781.100342,2.601807 777.148438,1.337827 
	C838.260376,1.000000 899.520691,1.000000 961.000000,1.000000 
	C961.000000,62.020721 961.000000,123.041702 961.000000,184.531342 
z"/>
<path fill="#000000" opacity="1.000000" stroke="none" 
	d="
M1.000002,777.468628 
	C1.956898,779.688354 3.311380,782.305054 3.810695,785.075867 
	C10.633821,822.938660 26.356102,856.584351 51.311199,885.884583 
	C83.552162,923.739441 124.211761,947.315979 172.786163,957.472473 
	C176.779495,958.307495 180.724747,959.372437 184.846176,960.665283 
	C123.739655,961.000000 62.479309,961.000000 1.000000,961.000000 
	C1.000000,899.979309 1.000000,838.958313 1.000002,777.468628 
z"/>
<path fill="#000000" opacity="1.000000" stroke="none" 
	d="
M777.468628,961.000000 
	C779.673096,960.030579 782.272217,958.647339 785.030457,958.154541 
	C820.299377,951.852661 851.957886,937.588318 880.077881,915.416626 
	C906.674866,894.445679 927.124756,868.580505 941.458191,837.925354 
	C949.889404,819.893372 955.677673,801.007751 958.858582,781.334595 
	C959.083130,779.945801 959.821777,778.640076 960.660645,777.147827 
	C961.000000,838.260376 961.000000,899.520691 961.000000,961.000000 
	C899.979309,961.000000 838.958313,961.000000 777.468628,961.000000 
z"/>
<path fill="#37B9F3" opacity="1.000000" stroke="none" 
	d="
M216.500992,257.010132 
	C217.660278,244.467194 218.776321,232.388565 219.916550,220.048187 
	C393.949524,220.048187 567.494507,220.048187 741.550903,220.048187 
	C742.925842,235.662186 744.493530,251.048950 745.599426,266.468842 
	C749.232910,317.132050 748.662659,367.716919 741.956482,418.131073 
	C734.699524,472.684845 720.849731,525.432678 695.769165,574.610840 
	C680.997925,603.574463 662.506714,630.393250 642.909546,656.361755 
	C618.319275,688.946594 590.885071,718.816284 558.611816,744.021790 
	C536.046997,761.645081 511.812714,776.475464 485.146301,787.026123 
	C482.179077,788.200134 477.828217,787.764832 474.760986,786.508484 
	C441.273712,772.792236 411.650360,752.924927 384.666260,728.979675 
	C344.293365,693.153442 312.305603,650.528625 283.331177,605.290955 
	C252.053497,556.457153 234.424316,502.693665 223.899338,446.236206 
	C214.447495,395.535126 212.240768,344.335052 214.349762,292.898376 
	C214.834274,281.081451 215.743820,269.281982 216.500992,257.010132 
M488.563080,770.209351 
	C504.023468,761.403442 520.117249,753.535339 534.818481,743.605408 
	C570.497864,719.506104 599.814758,688.597046 626.157593,654.753357 
	C647.280884,627.615417 666.934509,599.369019 682.674072,568.845398 
	C707.436768,520.823059 720.824890,469.128326 727.884460,415.733978 
	C734.198242,367.980499 734.813538,320.054596 731.686523,272.048340 
	C730.866272,259.456329 729.651917,246.889984 728.614075,234.256866 
	C563.063599,234.256866 398.164551,234.256866 233.128708,234.256866 
	C232.901978,235.833099 232.632431,237.125854 232.540741,238.431122 
	C231.128448,258.537842 229.223083,278.626190 228.443695,298.757965 
	C226.295197,354.255310 229.934494,409.335114 241.929047,463.700592 
	C250.112839,500.793701 261.241882,537.068787 279.505219,570.386230 
	C305.134735,617.141663 335.900665,660.457947 373.414856,698.650879 
	C402.609192,728.373413 435.267456,753.297485 473.412903,770.666626 
	C478.577484,773.018311 483.071106,773.640442 488.563080,770.209351 
z"/>
<path fill="#0C2233" opacity="1.000000" stroke="none" 
	d="
M488.219177,770.383301 
	C483.071106,773.640442 478.577484,773.018311 473.412903,770.666626 
	C435.267456,753.297485 402.609192,728.373413 373.414856,698.650879 
	C335.900665,660.457947 305.134735,617.141663 279.505219,570.386230 
	C261.241882,537.068787 250.112839,500.793701 241.929047,463.700592 
	C229.934494,409.335114 226.295197,354.255310 228.443695,298.757965 
	C229.223083,278.626190 231.128448,258.537842 232.540741,238.431122 
	C232.632431,237.125854 232.901978,235.833099 233.128708,234.256866 
	C398.164551,234.256866 563.063599,234.256866 728.614075,234.256866 
	C729.651917,246.889984 730.866272,259.456329 731.686523,272.048340 
	C734.813538,320.054596 734.198242,367.980499 727.884460,415.733978 
	C720.824890,469.128326 707.436768,520.823059 682.674072,568.845398 
	C666.934509,599.369019 647.280884,627.615417 626.157593,654.753357 
	C599.814758,688.597046 570.497864,719.506104 534.818481,743.605408 
	C520.117249,753.535339 504.023468,761.403442 488.219177,770.383301 
M378.941315,386.928833 
	C379.064209,387.052521 379.187073,387.176239 379.091248,387.948944 
	C357.833618,421.299805 354.110535,456.877563 366.040619,494.230927 
	C370.541901,508.324585 378.083313,520.897888 387.750885,532.113464 
	C391.349243,536.288025 396.168457,537.286560 400.844635,535.325745 
	C405.213196,533.493958 408.472839,528.785828 407.558014,524.175720 
	C406.974426,521.234985 405.334991,518.266174 403.466187,515.854614 
	C383.437469,490.009491 377.892487,461.114624 385.158295,429.555450 
	C386.962585,421.718475 389.675385,414.138184 394.548676,407.531921 
	C394.963043,408.486816 395.048248,409.317688 394.868500,410.086639 
	C392.746735,419.163239 390.482300,428.207703 388.464661,437.307037 
	C386.613007,445.657684 390.618896,452.242767 398.433777,454.147827 
	C405.989197,455.989624 412.754364,451.633850 414.840088,443.436127 
	C416.440674,437.145081 417.860870,430.808258 419.371429,424.494202 
	C424.754913,401.991608 430.185760,379.500214 435.498901,356.981018 
	C436.842285,351.287201 436.089691,345.938507 431.189484,342.022675 
	C426.414307,338.206696 421.289215,338.125153 415.734650,340.584167 
	C401.740479,346.779510 387.641357,352.737457 373.594025,358.812897 
	C360.617554,364.425171 347.653961,370.067139 334.684052,375.694580 
	C330.156281,377.659119 326.793182,380.691437 325.829071,385.747070 
	C324.813110,391.074280 326.151245,395.676270 330.480957,399.160034 
	C335.528412,403.221283 340.922516,402.689911 346.470428,400.299316 
	C357.161987,395.692352 367.873871,391.132538 378.941315,386.928833 
M573.576355,375.903961 
	C555.072571,354.861053 532.221436,341.126648 504.784637,335.245209 
	C489.784698,332.029755 474.692322,332.109222 459.635071,334.906921 
	C454.200348,335.916656 450.675842,340.043671 450.322571,345.207275 
	C449.985870,350.128113 452.924896,355.040405 457.756012,356.418579 
	C460.372375,357.164978 463.330414,356.890320 466.125366,356.799835 
	C473.429260,356.563263 480.790222,355.401154 488.018372,355.980835 
	C518.666382,358.438599 542.951843,372.619873 561.267883,397.179749 
	C562.100098,398.295715 562.467834,399.758087 563.051941,401.059143 
	C562.644592,401.323181 562.237305,401.587219 561.829956,401.851257 
	C555.300720,395.753815 548.750244,389.678925 542.248169,383.552643 
	C535.750610,377.430573 527.338501,377.215698 521.860962,383.094238 
	C516.589478,388.751648 517.165955,397.233307 523.404968,403.154449 
	C544.541199,423.213745 565.730530,443.217072 586.893677,463.248016 
	C591.408203,467.520966 596.489441,470.022308 602.742004,467.647766 
	C608.943665,465.292572 611.177368,460.225555 611.840088,453.945496 
	C613.272644,440.370331 614.996704,426.826172 616.545837,413.263000 
	C618.359314,397.385712 620.330933,381.521790 621.801880,365.612152 
	C622.536011,357.671967 617.263855,351.743530 609.914368,351.037140 
	C602.269104,350.302307 596.120605,355.233276 594.919495,363.177734 
	C594.422180,366.467102 594.153137,369.790649 593.762390,373.096497 
	C592.701294,382.074646 591.630676,391.051605 590.503601,400.535736 
	C584.690063,392.009308 579.375427,384.214539 573.576355,375.903961 
M454.999420,597.456055 
	C458.221558,599.816406 461.834686,601.792969 464.595612,604.605957 
	C474.575684,614.774292 486.547729,617.714355 500.383728,616.206726 
	C507.634796,615.416565 509.945984,613.451904 507.535828,606.384460 
	C506.487457,603.310303 504.004974,600.359741 501.440063,598.241638 
	C495.420227,593.270569 488.942444,588.856140 482.681335,584.174500 
	C479.358002,581.689514 476.099976,579.117188 471.683777,575.714661 
	C474.315002,575.714661 475.296204,575.680908 476.274567,575.719543 
	C505.402802,576.869080 531.334656,567.920105 554.509583,550.636658 
	C573.160583,536.727112 586.264343,518.596802 594.237488,496.774994 
	C596.919678,489.434021 593.563965,482.633667 586.725098,481.016266 
	C580.710449,479.593719 575.411438,482.797729 572.611267,490.003876 
	C562.053528,517.174316 542.808838,535.645142 516.031799,546.465393 
	C505.077942,550.891724 493.658051,553.357178 481.657959,552.553650 
	C483.830780,551.402344 486.107819,550.602478 488.413208,549.895020 
	C496.831848,547.311646 505.391235,545.116821 513.645142,542.087708 
	C520.955994,539.404724 523.982117,532.004211 521.510376,524.946289 
	C519.253052,518.500671 512.447937,514.912170 505.350067,516.619019 
	C501.475006,517.550781 497.671265,518.784790 493.847046,519.921753 
	C469.149597,527.264709 444.456818,534.623230 419.759094,541.965210 
	C413.786377,543.740723 409.150848,546.916687 408.098969,553.543945 
	C407.089935,559.900940 410.166534,564.285156 415.115906,567.911194 
	C428.269196,577.547424 441.309601,587.337708 454.999420,597.456055 
z"/>
<path fill="#F8BD24" opacity="1.000000" stroke="none" 
	d="
M573.818542,376.161865 
	C579.375427,384.214539 584.690063,392.009308 590.503601,400.535736 
	C591.630676,391.051605 592.701294,382.074646 593.762390,373.096497 
	C594.153137,369.790649 594.422180,366.467102 594.919495,363.177734 
	C596.120605,355.233276 602.269104,350.302307 609.914368,351.037140 
	C617.263855,351.743530 622.536011,357.671967 621.801880,365.612152 
	C620.330933,381.521790 618.359314,397.385712 616.545837,413.263000 
	C614.996704,426.826172 613.272644,440.370331 611.840088,453.945496 
	C611.177368,460.225555 608.943665,465.292572 602.742004,467.647766 
	C596.489441,470.022308 591.408203,467.520966 586.893677,463.248016 
	C565.730530,443.217072 544.541199,423.213745 523.404968,403.154449 
	C517.165955,397.233307 516.589478,388.751648 521.860962,383.094238 
	C527.338501,377.215698 535.750610,377.430573 542.248169,383.552643 
	C548.750244,389.678925 555.300720,395.753815 561.829956,401.851257 
	C562.237305,401.587219 562.644592,401.323181 563.051941,401.059143 
	C562.467834,399.758087 562.100098,398.295715 561.267883,397.179749 
	C542.951843,372.619873 518.666382,358.438599 488.018372,355.980835 
	C480.790222,355.401154 473.429260,356.563263 466.125366,356.799835 
	C463.330414,356.890320 460.372375,357.164978 457.756012,356.418579 
	C452.924896,355.040405 449.985870,350.128113 450.322571,345.207275 
	C450.675842,340.043671 454.200348,335.916656 459.635071,334.906921 
	C474.692322,332.109222 489.784698,332.029755 504.784637,335.245209 
	C532.221436,341.126648 555.072571,354.861053 573.818542,376.161865 
M562.985107,400.227142 
	C562.489563,400.270691 561.994019,400.314240 561.498474,400.357819 
	C561.827148,401.068115 562.155884,401.778412 562.762207,403.055023 
	C563.113342,403.189178 563.464417,403.323334 563.815552,403.457489 
	C563.741638,402.695587 563.667664,401.933716 562.985107,400.227142 
z"/>
<path fill="#33D098" opacity="1.000000" stroke="none" 
	d="
M378.577332,386.553162 
	C367.873871,391.132538 357.161987,395.692352 346.470428,400.299316 
	C340.922516,402.689911 335.528412,403.221283 330.480957,399.160034 
	C326.151245,395.676270 324.813110,391.074280 325.829071,385.747070 
	C326.793182,380.691437 330.156281,377.659119 334.684052,375.694580 
	C347.653961,370.067139 360.617554,364.425171 373.594025,358.812897 
	C387.641357,352.737457 401.740479,346.779510 415.734650,340.584167 
	C421.289215,338.125153 426.414307,338.206696 431.189484,342.022675 
	C436.089691,345.938507 436.842285,351.287201 435.498901,356.981018 
	C430.185760,379.500214 424.754913,401.991608 419.371429,424.494202 
	C417.860870,430.808258 416.440674,437.145081 414.840088,443.436127 
	C412.754364,451.633850 405.989197,455.989624 398.433777,454.147827 
	C390.618896,452.242767 386.613007,445.657684 388.464661,437.307037 
	C390.482300,428.207703 392.746735,419.163239 394.868500,410.086639 
	C395.048248,409.317688 394.963043,408.486816 394.548676,407.531921 
	C389.675385,414.138184 386.962585,421.718475 385.158295,429.555450 
	C377.892487,461.114624 383.437469,490.009491 403.466187,515.854614 
	C405.334991,518.266174 406.974426,521.234985 407.558014,524.175720 
	C408.472839,528.785828 405.213196,533.493958 400.844635,535.325745 
	C396.168457,537.286560 391.349243,536.288025 387.750885,532.113464 
	C378.083313,520.897888 370.541901,508.324585 366.040619,494.230927 
	C354.110535,456.877563 357.833618,421.299805 379.372314,387.473419 
	C379.294708,386.849670 378.936035,386.701416 378.577332,386.553162 
M395.467010,405.764771 
	C395.467010,405.764771 395.570465,405.512604 395.570465,405.512604 
	C395.570465,405.512604 395.323486,405.577118 395.467010,405.764771 
z"/>
<path fill="#F57070" opacity="1.000000" stroke="none" 
	d="
M454.697144,597.261414 
	C441.309601,587.337708 428.269196,577.547424 415.115906,567.911194 
	C410.166534,564.285156 407.089935,559.900940 408.098969,553.543945 
	C409.150848,546.916687 413.786377,543.740723 419.759094,541.965210 
	C444.456818,534.623230 469.149597,527.264709 493.847046,519.921753 
	C497.671265,518.784790 501.475006,517.550781 505.350067,516.619019 
	C512.447937,514.912170 519.253052,518.500671 521.510376,524.946289 
	C523.982117,532.004211 520.955994,539.404724 513.645142,542.087708 
	C505.391235,545.116821 496.831848,547.311646 488.413208,549.895020 
	C486.107819,550.602478 483.830780,551.402344 481.657959,552.553650 
	C493.658051,553.357178 505.077942,550.891724 516.031799,546.465393 
	C542.808838,535.645142 562.053528,517.174316 572.611267,490.003876 
	C575.411438,482.797729 580.710449,479.593719 586.725098,481.016266 
	C593.563965,482.633667 596.919678,489.434021 594.237488,496.774994 
	C586.264343,518.596802 573.160583,536.727112 554.509583,550.636658 
	C531.334656,567.920105 505.402802,576.869080 476.274567,575.719543 
	C475.296204,575.680908 474.315002,575.714661 471.683777,575.714661 
	C476.099976,579.117188 479.358002,581.689514 482.681335,584.174500 
	C488.942444,588.856140 495.420227,593.270569 501.440063,598.241638 
	C504.004974,600.359741 506.487457,603.310303 507.535828,606.384460 
	C509.945984,613.451904 507.634796,615.416565 500.383728,616.206726 
	C486.547729,617.714355 474.575684,614.774292 464.595612,604.605957 
	C461.834686,601.792969 458.221558,599.816406 454.697144,597.261414 
z"/>
<path fill="#0C2233" opacity="1.000000" stroke="none" 
	d="
M563.593689,401.171814 
	C563.667664,401.933716 563.741638,402.695587 563.815552,403.457489 
	C563.464417,403.323334 563.113342,403.189178 562.902832,402.444427 
	C563.226929,401.613129 563.410339,401.392456 563.593689,401.171814 
z"/>
<path fill="#0C2233" opacity="1.000000" stroke="none" 
	d="
M562.764038,402.161255 
	C562.155884,401.778412 561.827148,401.068115 561.498474,400.357819 
	C561.994019,400.314240 562.489563,400.270691 563.289429,400.699463 
	C563.410339,401.392456 563.226929,401.613129 562.764038,402.161255 
z"/>
<path fill="#0C2233" opacity="1.000000" stroke="none" 
	d="
M378.759338,386.740997 
	C378.936035,386.701416 379.294708,386.849670 379.481659,387.148926 
	C379.187073,387.176239 379.064209,387.052521 378.759338,386.740997 
z"/>
<path fill="#0C2233" opacity="1.000000" stroke="none" 
	d="
M395.395264,405.670959 
	C395.323486,405.577118 395.570465,405.512604 395.570465,405.512604 
	C395.570465,405.512604 395.467010,405.764771 395.395264,405.670959 
z"/>
</svg>